<svg xmlns:xlink="http://www.w3.org/1999/xlink" xmlns="http://www.w3.org/2000/svg" width="20" height="20" viewBox="0 0 16 16" class="flex-none icon" style="shape-rendering: geometricprecision;"><defs><symbol id="AiFeature" viewBox="0 0 16 16">
            <path fill-rule="nonzero" d="M8 14C7.70462 14 7.46461 13.7969 7.4 13.5108L7.29846 13.04C6.83693 10.8707 5.12921 9.16308 2.96 8.70154L2.48923 8.6C2.20308 8.53538 2 8.29539 2 8C2 7.70461 2.20308 7.46462 2.48923 7.4L2.96 7.29846C5.12921 6.83692 6.83693 5.12926 7.29846 2.96L7.4 2.48923C7.46461 2.20307 7.70462 2 8 2C8.29538 2 8.53539 2.20307 8.6 2.48923L8.70154 2.96C9.16307 5.12926 10.8708 6.83692 13.04 7.29846L13.5108 7.4C13.7969 7.46462 14 7.70461 14 8C14 8.29539 13.7969 8.53538 13.5108 8.6L13.04 8.70154C10.8708 9.16308 9.16307 10.8707 8.70154 13.04L8.6 13.5108C8.53539 13.7969 8.29538 14 8 14ZM3.88308 8C5.82152 8.65539 7.34462 10.1877 8 12.1169C8.65538 10.1784 10.1877 8.65539 12.1169 8C10.1785 7.34461 8.65538 5.81233 8 3.88308C7.34462 5.82156 5.81229 7.34461 3.88308 8Z"></path>
        </symbol></defs><use fill="rgb(221, 4, 168)" href="/icons/icon_definitions.svg?v=68b23d569e0a0c2f5529fd9b824929e7#AiFeature" xlink:href="#AiFeature"></use></svg>